<?xml version="1.0" encoding="UTF-8" standalone="no"?>
<!-- Created with Inkscape (http://www.inkscape.org/) -->

<svg
   xmlns:dc="http://purl.org/dc/elements/1.1/"
   xmlns:cc="http://creativecommons.org/ns#"
   xmlns:rdf="http://www.w3.org/1999/02/22-rdf-syntax-ns#"
   xmlns:svg="http://www.w3.org/2000/svg"
   xmlns="http://www.w3.org/2000/svg"
   version="1.1"
   width="100"
   height="100"
   id="Gear">
  <defs
     id="defs2993" />
  <metadata
     id="metadata2996">
    <rdf:RDF>
      <cc:Work
         rdf:about="">
        <dc:format>image/svg+xml</dc:format>
        <dc:type
           rdf:resource="http://purl.org/dc/dcmitype/StillImage" />
        <dc:title></dc:title>
      </cc:Work>
    </rdf:RDF>
  </metadata>
  <g
     transform="translate(0,-952.36218)"
     id="layer1">
    <path
       d="M 50,0.5625 C 34.6272,0.56250024 50.015115,9.8670831 35.8125,15.75 21.609883,21.632918 25.932713,4.1922869 15.0625,15.0625 4.1922887,25.932712 21.632915,21.609884 15.75,35.8125 9.867084,50.015118 0.56249976,34.627197 0.5625,50 c 2.4e-7,15.3728 9.3045831,-0.01512 15.1875,14.1875 5.882918,14.202617 -11.5577131,9.879787 -0.6875,20.75 10.870212,10.870211 6.547384,-6.570415 20.75,-0.6875 14.202618,5.882916 -1.185303,15.1875 14.1875,15.1875 15.3728,0 -0.01512,-9.304583 14.1875,-15.1875 14.202617,-5.882918 9.879787,11.557713 20.75,0.6875 C 95.807711,74.067288 78.367085,78.390116 84.25,64.1875 90.132916,49.984882 99.4375,65.372803 99.4375,50 99.4375,34.6272 90.132917,50.015115 84.25,35.8125 78.367082,21.609883 95.807713,25.932713 84.9375,15.0625 74.067288,4.1922887 78.390116,21.632915 64.1875,15.75 49.984882,9.867084 65.372803,0.56249976 50,0.5625 z m 0,23.5 C 64.31763,24.0625 75.9375,35.68237 75.9375,50 75.9375,64.31763 64.31763,75.9375 50,75.9375 35.68237,75.9375 24.0625,64.31763 24.0625,50 24.0625,35.68237 35.68237,24.0625 50,24.0625 z"
       transform="translate(0,952.36218)"
       id="path3003"
       style="fill-opacity:1;fill-rule:nonzero;stroke:none;stroke-width:4;marker:none;visibility:visible;display:inline;overflow:visible;enable-background:accumulate" />
  </g>
</svg>
